<?xml version="1.0" encoding="utf-8"?>
<!-- Generator: Adobe Illustrator 24.0.1, SVG Export Plug-In . SVG Version: 6.00 Build 0)  -->
<svg version="1.1" id="Capa_1" xmlns="http://www.w3.org/2000/svg" xmlns:xlink="http://www.w3.org/1999/xlink" x="0px" y="0px"
	 viewBox="0 0 482 207" style="enable-background:new 0 0 482 207;" xml:space="preserve">
<g>
	<path d="M138.4,94.9V67.1c0-1.9-0.3-3.6-1-5c-0.6-1.4-1.5-2.5-2.5-3.4c-1.1-0.9-2.3-1.6-3.6-2.1c-1.4-0.5-2.8-0.7-4.3-0.7H53.1
		c-8.6,0-13.3,4.7-13.9,14.1v25.4v3.7v30v4.6v20.8c0,9.4,4.6,14.1,13.8,14.1h74c2.4-0.8,4.3-1.6,5.6-2.4c1.4-0.8,2.4-1.7,3.2-2.8
		c0.7-1.1,1.3-2.3,1.7-3.9c0.4-1.5,0.7-3.5,1-5.9v-22.2H93.9v16.8H87v-14.6V129v-5.3h45v-19.6H87v-5v-3.7V75.7h6.9v19.2
		C93.9,94.9,138.4,94.9,138.4,94.9z"/>
	<path d="M189.3,76.7h5.9v22.4h44.6c0.5-0.8,0.8-1.6,1-2.3c0.6-1.9,0.9-3.1,0.9-3.7V72.9c0-3.3-0.6-6-1.8-8.2
		c-1.2-2.2-2.6-3.9-4.3-5.2s-3.3-2.2-5-2.8s-2.9-0.8-3.7-0.8h-84.1V99h46.4V76.7H189.3z"/>
	<rect x="142.9" y="129" width="46.4" height="39.5"/>
	<path d="M195.2,168.5h47.5c0-6.9-0.4-13.3-1.2-19.2s-2.4-11.1-4.7-15.5c-0.9-1.7-1.9-3.3-3-4.8h-38.5v39.5H195.2z"/>
	<path d="M293.8,99.1V74.2h6.6v21.2h39.9v-29c0-1.9-0.5-3.6-1.4-4.9c-0.9-1.3-2.1-2.4-3.6-3.2s-3.2-1.4-5-1.9
		c-1.8-0.4-3.7-0.6-5.5-0.6h-45.3V99h14.3V99.1z"/>
	<polygon points="301.2,104.1 302,104.7 340.2,104.7 340.2,104.1 	"/>
	<path d="M252.6,158c0.4,2.7,1,4.7,1.9,6.1c0.9,1.4,2,2.4,3.3,3.1c1.3,0.7,2.9,1.1,4.6,1.2c1.7,0.1,3.7,0.1,5.8,0.1h11.3l-24.1-6.2
		v-31.1h-2.8L252.6,158L252.6,158z"/>
	<path d="M300,124.1v26.1h-7.7v-18.9h-12.8v37.3h44c3.9,0,6.9-0.3,9.2-0.8c2.2-0.6,3.9-1.3,5-2.3s1.8-2.2,2.1-3.6
		c0.3-1.4,0.4-2.8,0.4-4.4v-35.1H302L300,124.1z"/>
	<path d="M443.4,68.4c-0.7-1.9-1.8-3.7-3.2-5.4c-1.4-1.7-3.1-3.1-5-4.3c-2-1.2-4.2-2.1-6.7-2.6h-67.2c-2.2,0-4.3,0.5-6.3,1.5
		s-3.8,2.3-5.3,4s-2.7,3.6-3.6,5.7c-0.9,2.2-1.3,4.4-1.3,6.7v30.7H391V76.8h6.6v21.4v6.5v3.8h22.9v9.8h-22.9v0.1v3.8v6.4v20.3H391
		v-26.7h-46.1v32.3c0,4.7,1.6,8.2,4.8,10.5c3.2,2.3,7,3.4,11.6,3.4h67.3c1.8,0,3.7-0.2,5.6-0.7s3.6-1.2,5.2-2.1
		c1.5-1,2.8-2.2,3.7-3.6c1-1.4,1.4-3.1,1.4-4.9v-22.9v-16v-9.9v-9.4V74C444.5,72.2,444.1,70.3,443.4,68.4"/>
	<rect x="340.2" y="104.7" width="4.7" height="17.6"/>
	<polygon points="87.1,99.1 87.1,101.9 136.3,101.9 136.3,125.4 87.1,125.4 87.1,129 142.9,129 142.9,99.1 	"/>
	<rect x="391" y="104.7" width="6.6" height="17.6"/>
	<path d="M294.5,129l5.5-4.9v-20h1.2l-6.7-5h-0.7v21.2h-38.3V98l0,0V66l24.1-10.2h-10.2c-10,0-15.6,3.7-16.7,11V98v1.1h-12.8
		c-0.7,1.3-1.7,2.6-2.9,4.1c-2.1,2.4-5.1,4.8-9.2,7.2c-4,2.4-9.5,4.5-16.2,6.1c6.4,1.1,11.7,3.2,15.8,6.1c2.5,1.8,4.7,4,6.5,6.4
		L294.5,129L294.5,129z"/>
	<rect x="189.3" y="99.1" width="5.9" height="30"/>
</g>
<g>
	<path d="M108.7,39.7c0.7,0,1.3,0.1,1.8,0.3c0.5,0.2,0.9,0.4,1.2,0.8s0.5,0.7,0.7,1.2c0.1,0.5,0.2,1,0.2,1.5c0,0.9-0.2,1.7-0.6,2.3
		s-1,0.9-1.8,1.1v0c0.9,0.1,1.5,0.4,1.8,0.9c0.3,0.5,0.5,1.3,0.5,2.2v1.2c0,0.2,0,0.4,0,0.6c0,0.2,0,0.4,0,0.6s0,0.3,0.1,0.5
		s0.1,0.3,0.1,0.3c0.1,0.1,0.1,0.2,0.2,0.2c0.1,0.1,0.1,0.1,0.3,0.2v0.2h-3.9c-0.1-0.2-0.2-0.4-0.2-0.7c0-0.2-0.1-0.5-0.1-0.7
		c0-0.2,0-0.5,0-0.7c0-0.2,0-0.4,0-0.6v-0.9c0-0.4,0-0.7-0.1-1c0-0.3-0.1-0.5-0.2-0.6c-0.1-0.2-0.2-0.3-0.4-0.3
		c-0.2-0.1-0.3-0.1-0.6-0.1h-1v5.6h-3.7V39.7H108.7z M107.3,45.7c0.5,0,0.9-0.2,1.2-0.5c0.2-0.3,0.4-0.7,0.4-1.2
		c0-0.6-0.1-1-0.4-1.3c-0.2-0.2-0.6-0.4-1.2-0.4h-0.7v3.3H107.3z"/>
	<path d="M134,39.7v3h-4.7v2.4h4.4V48h-4.4v2.8h4.8v3h-8.5V39.7H134z"/>
	<path d="M155.2,39.7v3h-4.7v2.4h4.4V48h-4.4v5.8h-3.7V39.7H155.2z"/>
	<path d="M173.9,39.7l3.4,14.1h-3.9l-0.4-2.5h-2.9l-0.4,2.5h-3.8l3.4-14.1H173.9z M171.6,42.6l-1,6h2L171.6,42.6L171.6,42.6z"/>
	<path d="M194.7,42.3c-0.2-0.3-0.4-0.4-0.8-0.4c-0.3,0-0.5,0.1-0.7,0.2c-0.2,0.1-0.3,0.4-0.4,0.8c-0.1,0.4-0.1,0.9-0.2,1.5
		s0,1.4,0,2.4c0,0.9,0,1.7,0,2.4s0.1,1.1,0.2,1.5c0.1,0.4,0.2,0.6,0.4,0.8s0.4,0.2,0.7,0.2c0.2,0,0.4-0.1,0.6-0.2s0.3-0.3,0.3-0.6
		c0.1-0.3,0.1-0.6,0.2-1.1c0-0.4,0-1,0-1.7h3.5v1c0,1-0.1,1.8-0.4,2.4s-0.6,1.1-1,1.5c-0.4,0.4-0.9,0.6-1.5,0.7
		c-0.6,0.1-1.1,0.2-1.7,0.2c-1,0-1.9-0.1-2.5-0.4c-0.7-0.2-1.2-0.7-1.5-1.3c-0.4-0.6-0.6-1.3-0.8-2.3c-0.1-0.9-0.2-2-0.2-3.4
		c0-1.3,0.1-2.5,0.2-3.4s0.4-1.7,0.8-2.3c0.4-0.6,0.9-1,1.6-1.3c0.6-0.3,1.4-0.4,2.4-0.4c0.8,0,1.5,0.1,2.1,0.3
		c0.6,0.2,1,0.5,1.4,0.9c0.4,0.4,0.6,0.9,0.8,1.4s0.2,1.2,0.2,1.8v0.9H195V44C195,43.2,194.9,42.6,194.7,42.3z"/>
	<path d="M216.1,42.3c-0.2-0.3-0.4-0.4-0.8-0.4c-0.3,0-0.5,0.1-0.7,0.2c-0.2,0.1-0.3,0.4-0.4,0.8c-0.1,0.4-0.1,0.9-0.2,1.5
		s0,1.4,0,2.4c0,0.9,0,1.7,0,2.4s0.1,1.1,0.2,1.5c0.1,0.4,0.2,0.6,0.4,0.8s0.4,0.2,0.7,0.2c0.2,0,0.4-0.1,0.6-0.2s0.3-0.3,0.3-0.6
		c0.1-0.3,0.1-0.6,0.2-1.1c0-0.4,0-1,0-1.7h3.5v1c0,1-0.1,1.8-0.4,2.4s-0.6,1.1-1,1.5c-0.4,0.4-0.9,0.6-1.5,0.7
		c-0.6,0.1-1.1,0.2-1.7,0.2c-1,0-1.9-0.1-2.5-0.4c-0.7-0.2-1.2-0.7-1.5-1.3c-0.4-0.6-0.6-1.3-0.8-2.3c-0.1-0.9-0.2-2-0.2-3.4
		c0-1.3,0.1-2.5,0.2-3.4s0.4-1.7,0.8-2.3c0.4-0.6,0.9-1,1.6-1.3c0.6-0.3,1.4-0.4,2.4-0.4c0.8,0,1.5,0.1,2.1,0.3
		c0.6,0.2,1,0.5,1.4,0.9c0.4,0.4,0.6,0.9,0.8,1.4s0.2,1.2,0.2,1.8v0.9h-3.5V44C216.3,43.2,216.2,42.6,216.1,42.3z"/>
	<path d="M236.2,39.7v14.1h-3.7V39.7H236.2z"/>
	<path d="M249,43.4c0.2-0.9,0.5-1.7,0.8-2.3c0.4-0.6,0.9-1,1.6-1.3c0.6-0.3,1.4-0.4,2.4-0.4s1.7,0.1,2.4,0.4
		c0.6,0.3,1.2,0.7,1.6,1.3c0.4,0.6,0.7,1.3,0.8,2.3c0.2,0.9,0.3,2,0.3,3.4s-0.1,2.4-0.3,3.4c-0.2,0.9-0.5,1.7-0.8,2.3
		c-0.4,0.6-0.9,1-1.6,1.3s-1.4,0.4-2.4,0.4s-1.7-0.1-2.4-0.4s-1.2-0.7-1.6-1.3c-0.4-0.6-0.7-1.3-0.8-2.3c-0.2-0.9-0.3-2-0.3-3.4
		S248.8,44.3,249,43.4z M252.6,49.1c0,0.6,0.1,1.1,0.2,1.5c0.1,0.4,0.2,0.6,0.4,0.8s0.4,0.2,0.7,0.2c0.3,0,0.5-0.1,0.7-0.2
		c0.2-0.1,0.3-0.4,0.4-0.8c0.1-0.4,0.1-0.9,0.2-1.5c0-0.6,0-1.4,0-2.4c0-0.9,0-1.7,0-2.4c0-0.6-0.1-1.1-0.2-1.5
		c-0.1-0.4-0.2-0.6-0.4-0.8c-0.2-0.1-0.4-0.2-0.7-0.2c-0.3,0-0.5,0.1-0.7,0.2c-0.2,0.1-0.3,0.4-0.4,0.8c-0.1,0.4-0.1,0.9-0.2,1.5
		s0,1.4,0,2.4C252.5,47.7,252.5,48.5,252.6,49.1z"/>
	<path d="M275.6,39.7l2.4,8.7h0v-8.7h3.4v14.1h-4l-2.4-8.7h0v8.7h-3.4V39.7H275.6z"/>
	<path d="M301.5,39.7l3.4,14.1H301l-0.4-2.5h-2.9l-0.4,2.5h-3.8l3.4-14.1H301.5z M299.1,42.6l-1,6h2L299.1,42.6L299.1,42.6z"/>
	<path d="M322.6,39.7c0.7,0,1.3,0.1,1.8,0.3c0.5,0.2,0.9,0.4,1.2,0.8s0.5,0.7,0.7,1.2c0.1,0.5,0.2,1,0.2,1.5c0,0.9-0.2,1.7-0.6,2.3
		s-1,0.9-1.8,1.1v0c0.9,0.1,1.5,0.4,1.8,0.9s0.5,1.3,0.5,2.2v1.2c0,0.2,0,0.4,0,0.6c0,0.2,0,0.4,0,0.6c0,0.2,0,0.3,0.1,0.5
		s0.1,0.3,0.1,0.3c0.1,0.1,0.1,0.2,0.2,0.2c0.1,0.1,0.1,0.1,0.3,0.2v0.2h-3.9c-0.1-0.2-0.2-0.4-0.2-0.7c0-0.2-0.1-0.5-0.1-0.7
		s0-0.5,0-0.7c0-0.2,0-0.4,0-0.6v-0.9c0-0.4,0-0.7-0.1-1c0-0.3-0.1-0.5-0.2-0.6s-0.2-0.3-0.4-0.3s-0.3-0.1-0.6-0.1h-1v5.6h-3.7V39.7
		H322.6z M321.3,45.7c0.5,0,0.9-0.2,1.2-0.5c0.2-0.3,0.4-0.7,0.4-1.2c0-0.6-0.1-1-0.4-1.3s-0.6-0.4-1.2-0.4h-0.7v3.3H321.3z"/>
	<path d="M343.1,39.7v14.1h-3.7V39.7H343.1z"/>
	<path d="M363,39.7l3.4,14.1h-3.9l-0.4-2.5h-2.9l-0.4,2.5H355l3.4-14.1H363z M360.7,42.6l-1,6h2L360.7,42.6L360.7,42.6z"/>
	<path d="M383.9,43.4c0-0.4-0.1-0.8-0.3-1.1c-0.2-0.3-0.4-0.4-0.8-0.4c-0.4,0-0.7,0.1-0.9,0.4c-0.2,0.3-0.3,0.5-0.3,0.9
		c0,0.5,0.1,0.8,0.4,1.1c0.3,0.3,0.7,0.5,1.1,0.7c0.4,0.2,0.9,0.4,1.4,0.6c0.5,0.2,1,0.5,1.4,0.8c0.4,0.3,0.8,0.8,1.1,1.3
		c0.3,0.5,0.4,1.2,0.4,2.1c0,1.5-0.4,2.6-1.3,3.3c-0.9,0.7-2.1,1-3.7,1c-0.8,0-1.4-0.1-2-0.2c-0.6-0.1-1.1-0.3-1.5-0.7
		c-0.4-0.3-0.7-0.7-0.9-1.2c-0.2-0.5-0.3-1.1-0.3-1.9v-0.5h3.5v0.3c0,0.6,0.1,1,0.3,1.3c0.2,0.2,0.5,0.4,0.9,0.4
		c0.4,0,0.7-0.1,0.9-0.4c0.2-0.3,0.3-0.6,0.3-1c0-0.5-0.1-0.8-0.4-1.1c-0.3-0.3-0.6-0.5-1.1-0.7s-0.9-0.4-1.4-0.6
		c-0.5-0.2-1-0.5-1.4-0.8c-0.4-0.3-0.8-0.7-1.1-1.2c-0.3-0.5-0.4-1.2-0.4-2c0-1.4,0.4-2.5,1.1-3.3c0.8-0.7,1.9-1.1,3.5-1.1
		c1.6,0,2.8,0.3,3.5,1c0.7,0.7,1.1,1.8,1.1,3.3h-3.4V43.4z"/>
</g>
<g>
	<path d="M468.9,66.4c0,4.9-3.9,8.8-8.9,8.8c-5,0-9-3.9-9-8.8c0-4.8,4-8.7,9-8.7C465,57.7,468.9,61.6,468.9,66.4z M453.2,66.4
		c0,3.9,2.9,7,6.8,7c3.8,0,6.6-3.1,6.6-6.9c0-3.9-2.8-7-6.7-7C456.1,59.5,453.2,62.6,453.2,66.4z M458.6,71h-2v-8.7
		c0.8-0.2,1.9-0.3,3.3-0.3c1.6,0,2.4,0.3,3,0.6c0.5,0.4,0.8,1.1,0.8,1.9c0,1-0.7,1.7-1.8,2v0.1c0.8,0.3,1.3,1,1.6,2.1
		c0.3,1.3,0.4,1.9,0.6,2.2H462c-0.3-0.3-0.4-1.1-0.7-2.1c-0.2-1-0.7-1.4-1.8-1.4h-1V71z M458.6,66.1h1c1.1,0,2-0.4,2-1.3
		c0-0.8-0.6-1.3-1.9-1.3c-0.5,0-0.9,0.1-1.1,0.1V66.1z"/>
</g>
</svg>
