<?xml version="1.0" encoding="utf-8"?>
<!-- Generator: Adobe Illustrator 24.0.1, SVG Export Plug-In . SVG Version: 6.00 Build 0)  -->
<svg version="1.1" id="Capa_1" xmlns="http://www.w3.org/2000/svg" xmlns:xlink="http://www.w3.org/1999/xlink" x="0px" y="0px"
	 viewBox="0 0 482 207" style="enable-background:new 0 0 482 207;" xml:space="preserve">
<style type="text/css">
	.st0{fill:#8B0F04;}
	.st1{fill:#FFFFFF;}
</style>
<g>
	<path d="M138.4,94.9V67.1c0-1.9-0.3-3.6-1-5c-0.6-1.4-1.5-2.5-2.5-3.4c-1.1-0.9-2.3-1.6-3.6-2.1c-1.4-0.5-2.8-0.7-4.3-0.7H53.1
		c-8.6,0-13.3,4.7-13.9,14.1v25.4v3.7v30v4.6v20.8c0,9.4,4.6,14.1,13.8,14.1H127c2.4-0.8,4.3-1.6,5.6-2.4c1.4-0.8,2.4-1.7,3.2-2.8
		c0.7-1.1,1.3-2.3,1.7-3.9c0.4-1.5,0.7-3.5,1-5.9v-22.2H93.9v16.8h-6.9v-14.6V129v-5.3h45v-19.6h-45v-5v-3.7V75.7h6.9v19.2H138.4z"
		/>
	<path d="M189.3,76.7h5.9v22.4h44.6c0.5-0.8,0.8-1.6,1-2.3c0.6-1.9,0.9-3.1,0.9-3.7V72.9c0-3.3-0.6-6-1.8-8.2
		c-1.2-2.2-2.6-3.9-4.3-5.2c-1.7-1.3-3.3-2.2-5-2.8c-1.7-0.6-2.9-0.8-3.7-0.8h-84.1v43.1h46.4V76.7z"/>
	<rect x="142.9" y="129" width="46.4" height="39.5"/>
	<path d="M195.2,168.5h47.5c0-6.9-0.4-13.3-1.2-19.2c-0.8-5.9-2.4-11.1-4.7-15.5c-0.9-1.7-1.9-3.3-3-4.8h-38.5V168.5z"/>
	<path d="M293.8,99.1V74.2h6.6v21.2h39.9v-29c0-1.9-0.5-3.6-1.4-4.9c-0.9-1.3-2.1-2.4-3.6-3.2c-1.5-0.8-3.2-1.4-5-1.9
		c-1.8-0.4-3.7-0.6-5.5-0.6h-45.3v43.2H293.8z"/>
	<polygon points="301.2,104.1 302,104.7 340.2,104.7 340.2,104.1 	"/>
	<path d="M252.6,158c0.4,2.7,1,4.7,1.9,6.1c0.9,1.4,2,2.4,3.3,3.1c1.3,0.7,2.9,1.1,4.6,1.2c1.7,0.1,3.7,0.1,5.8,0.1h11.3l-24.1-6.2
		v-31.1h-2.8V158z"/>
	<path d="M300,124.1v26.1h-7.7v-18.9h-12.8v37.3h44c3.9,0,6.9-0.3,9.2-0.8c2.2-0.6,3.9-1.3,5-2.3c1.1-1,1.8-2.2,2.1-3.6
		c0.3-1.4,0.4-2.8,0.4-4.4v-35.1H302L300,124.1z"/>
	<path d="M443.4,68.4c-0.7-1.9-1.8-3.7-3.2-5.4c-1.4-1.7-3.1-3.1-5-4.3c-2-1.2-4.2-2.1-6.7-2.6h-67.2c-2.2,0-4.3,0.5-6.3,1.5
		c-2,1-3.8,2.3-5.3,4c-1.5,1.7-2.7,3.6-3.6,5.7c-0.9,2.2-1.3,4.4-1.3,6.7v30.7H391V76.8h6.6v21.4v6.5v3.8h22.9v9.8h-22.9v0.1v3.8
		v6.4v20.3H391v-26.7h-46.1v32.3c0,4.7,1.6,8.2,4.8,10.5c3.2,2.3,7,3.4,11.6,3.4h67.3c1.8,0,3.7-0.2,5.6-0.7
		c1.9-0.5,3.6-1.2,5.2-2.1c1.5-1,2.8-2.2,3.7-3.6c1-1.4,1.4-3.1,1.4-4.9v-22.9v-16v-9.9v-9.4V74C444.5,72.2,444.1,70.3,443.4,68.4"
		/>
	<rect x="340.2" y="104.7" width="4.7" height="17.6"/>
	<polygon points="87.1,99.1 87.1,101.9 136.3,101.9 136.3,125.4 87.1,125.4 87.1,129 142.9,129 142.9,99.1 	"/>
	<rect x="391" y="104.7" width="6.6" height="17.6"/>
	<path d="M294.5,129l5.5-4.9v-20h1.2l-6.7-5h-0.7v21.2h-38.3V98h0V66l24.1-10.2h-10.2c-10,0-15.6,3.7-16.7,11V98v1.1h-12.8
		c-0.7,1.3-1.7,2.6-2.9,4.1c-2.1,2.4-5.1,4.8-9.2,7.2c-4,2.4-9.5,4.5-16.2,6.1c6.4,1.1,11.7,3.2,15.8,6.1c2.5,1.8,4.7,4,6.5,6.4
		H294.5z"/>
	<rect x="189.3" y="99.1" width="5.9" height="30"/>
	<path d="M44.6,45.7h4.7v4.3c0,2.2-1.7,3.4-5,3.4c-3.3,0-5-1.2-5-3.4V43c0-2.2,1.7-3.4,5-3.4c3.3,0,5,1.2,5,3.4v1.3h-3.2v-1.5
		c0-1-0.7-1.3-1.8-1.3c-1.1,0-1.7,0.4-1.7,1.3v7.4c0,1,0.7,1.3,1.7,1.3c1.1,0,1.8-0.4,1.8-1.3v-2.5h-1.5V45.7z"/>
	<path d="M64.6,41.6v4.2h1.3c1.3,0,2-0.4,2-1.4V43c0-1-0.5-1.4-1.7-1.4H64.6z M68.3,53.3C68.1,53,68,52.8,68,51.7v-2.1
		c0-1.3-0.7-1.7-2.2-1.7h-1.2v5.5h-3.4V39.7h5.1c3.5,0,5,1,5,3.1v1.1c0,1.4-0.7,2.3-2.2,2.7v0c1.7,0.4,2.2,1.5,2.2,2.9v2.1
		c0,0.7,0,1.1,0.4,1.7H68.3z"/>
	<path d="M86.5,39.7v10.5c0,1,0.7,1.3,1.7,1.3s1.7-0.3,1.7-1.3V39.7h3.2v10.4c0,2.2-1.7,3.4-5,3.4s-5-1.2-5-3.4V39.7H86.5z"/>
	<path d="M108.6,41.6v4.6h1.6c1.1,0,1.7-0.3,1.7-1.3v-2c0-1-0.6-1.3-1.7-1.3H108.6z M115.3,43.1v1.8c0,2.2-1.7,3.4-5,3.4h-1.6v5.1
		h-3.4V39.7h5C113.6,39.7,115.3,40.9,115.3,43.1"/>
	<path d="M129.4,50.2c0,1,0.7,1.3,1.7,1.3c1.1,0,1.7-0.4,1.7-1.3v-7.4c0-1-0.7-1.3-1.7-1.3c-1.1,0-1.7,0.4-1.7,1.3V50.2z M126,43
		c0-2.2,1.8-3.4,5.1-3.4c3.3,0,5.1,1.2,5.1,3.4v7.1c0,2.2-1.8,3.4-5.1,3.4c-3.3,0-5.1-1.2-5.1-3.4V43z"/>
	<path d="M189.4,41.6v4.2h1.3c1.3,0,2-0.4,2-1.4V43c0-1-0.5-1.4-1.7-1.4H189.4z M193,53.3c-0.2-0.3-0.3-0.6-0.3-1.7v-2.1
		c0-1.3-0.7-1.7-2.2-1.7h-1.2v5.5H186V39.7h5.1c3.5,0,5,1,5,3.1v1.1c0,1.4-0.7,2.3-2.2,2.7v0c1.7,0.4,2.2,1.5,2.2,2.9v2.1
		c0,0.7,0,1.1,0.4,1.7H193z"/>
	<polygon points="211.4,45.4 216.1,45.4 216.1,47.4 211.4,47.4 211.4,51.4 217.3,51.4 217.3,53.3 208.1,53.3 208.1,39.7 217.3,39.7 
		217.3,41.6 211.4,41.6 	"/>
	<polygon points="232.5,45.8 236.8,45.8 236.8,47.7 232.5,47.7 232.5,53.3 229.1,53.3 229.1,39.7 238,39.7 238,41.6 232.5,41.6 	"/>
	<path d="M252.2,49h3.3l-1.6-6.9h-0.1L252.2,49z M259.9,53.3h-3.4l-0.6-2.5h-4.1l-0.6,2.5h-3.1l3.4-13.6h4.9L259.9,53.3z"/>
	<path d="M281,48.2v1.8c0,2.2-1.7,3.4-5,3.4c-3.3,0-5-1.2-5-3.4V43c0-2.2,1.7-3.4,5-3.4c3.3,0,5,1.2,5,3.4v1.3h-3.2v-1.5
		c0-1-0.7-1.3-1.7-1.3c-1.1,0-1.8,0.4-1.8,1.3v7.4c0,1,0.7,1.3,1.8,1.3c1.1,0,1.7-0.4,1.7-1.3v-1.9H281z"/>
	<path d="M302.6,48.2v1.8c0,2.2-1.7,3.4-5,3.4c-3.3,0-5-1.2-5-3.4V43c0-2.2,1.7-3.4,5-3.4c3.3,0,5,1.2,5,3.4v1.3h-3.2v-1.5
		c0-1-0.7-1.3-1.8-1.3s-1.7,0.4-1.7,1.3v7.4c0,1,0.7,1.3,1.7,1.3s1.8-0.4,1.8-1.3v-1.9H302.6z"/>
	<rect x="314.4" y="39.7" width="3.4" height="13.6"/>
	<path d="M333,50.2c0,1,0.7,1.3,1.7,1.3c1.1,0,1.8-0.4,1.8-1.3v-7.4c0-1-0.7-1.3-1.8-1.3c-1.1,0-1.7,0.4-1.7,1.3V50.2z M329.6,43
		c0-2.2,1.8-3.4,5.1-3.4c3.3,0,5.1,1.2,5.1,3.4v7.1c0,2.2-1.8,3.4-5.1,3.4c-3.3,0-5.1-1.2-5.1-3.4V43z"/>
	<polygon points="354.9,43.5 354.8,43.5 354.8,53.3 351.8,53.3 351.8,39.7 356,39.7 359.4,47.9 359.5,47.9 359.5,39.7 362.5,39.7 
		362.5,53.3 359,53.3 	"/>
	<path d="M377.9,49h3.3l-1.6-6.9h-0.1L377.9,49z M385.6,53.3h-3.4l-0.6-2.5h-4.1l-0.6,2.5h-3.1l3.4-13.6h4.9L385.6,53.3z"/>
	<path d="M400.3,41.6v4.2h1.3c1.3,0,2-0.4,2-1.4V43c0-1-0.5-1.4-1.7-1.4H400.3z M403.9,53.3c-0.2-0.3-0.3-0.6-0.3-1.7v-2.1
		c0-1.3-0.7-1.7-2.2-1.7h-1.2v5.5h-3.4V39.7h5.1c3.5,0,5,1,5,3.1v1.1c0,1.4-0.7,2.3-2.2,2.7v0c1.7,0.4,2.2,1.5,2.2,2.9v2.1
		c0,0.7,0,1.1,0.4,1.7H403.9z"/>
	<rect x="419" y="39.7" width="3.4" height="13.6"/>
	<path d="M437.6,50.2c0,1,0.7,1.3,1.7,1.3c1.1,0,1.8-0.4,1.8-1.3v-7.4c0-1-0.7-1.3-1.8-1.3c-1.1,0-1.7,0.4-1.7,1.3V50.2z M434.3,43
		c0-2.2,1.8-3.4,5.1-3.4c3.3,0,5.1,1.2,5.1,3.4v7.1c0,2.2-1.8,3.4-5.1,3.4c-3.3,0-5.1-1.2-5.1-3.4V43z"/>
</g>
</svg>
